<svg id="e58TlPgIn0M1" xmlns="http://www.w3.org/2000/svg" xmlns:xlink="http://www.w3.org/1999/xlink" viewBox="0 0 100 100" shape-rendering="geometricPrecision" text-rendering="geometricPrecision"><g transform="translate(0 0.000001)"><path d="M9.749125,50.199907c12.951252-24.110613,34.864453-12.442598,38.621384-.252428" stroke="#000"/><path d="M9.749125,50.199907c15.894925-30.481243,34.864453-12.442598,38.621384-.252428" transform="matrix(-1 0 0-1 96.48859 99.062396)" fill="none" stroke="#040404"/></g><path d="M58.66541,14.25498h6.72404v11.2964l7.159967-1.099589L62.56535,31.31631L51.570396,24.451791L58.66539,25.55138l.00002-11.2964Zm3.84017,20.4411h-.79565l.36192-.3962.43373.3962Z" transform="translate(5.28813 15.278709)" stroke-width="0"/><path d="M58.66541,14.25498h6.72404v11.2964l6.587422-1.106979L62.56535,31.31631L51.804737,24.713362l6.860653.838018.00002-11.2964Zm3.84017,20.4411h-.79565l.36192-.3962.43373.3962Z" transform="matrix(-1 0 0-1 90.37386 85.229769)"/><line x1="-41.68908" y1="0.268961" x2="41.68908" y2="-0.268962" transform="translate(46.637978 49.488973)" fill="none" stroke="#000"/></svg>
